<svg id="Camada_1" data-name="Camada 1" xmlns="http://www.w3.org/2000/svg" viewBox="0 0 3000 3000"><defs><style>.cls-1{fill:#fea;}.cls-1,.cls-2,.cls-3{stroke:#000;stroke-miterlimit:10;stroke-width:7px;}.cls-2{fill:#d40000;}.cls-3{fill:#faa;}</style></defs><path class="cls-1" d="M2417.71,2828.08c4.07-1.46,6.45-4.59,9.34-9.34,5.46-8.93,7-14.2,9.35-18.69,4.11-8,9.84-12.2,18.69-18.69,13.62-10,25.17-13.84,37.38-18.69,21.2-8.43,38.17-15.16,56.07-28,8.43-6.06,23.92-17.32,37.38-37.38,6.23-9.28,16.53-25,18.69-46.73.29-2.87.14-2.95,0-18.69-.09-10.58-.06-22.63,0-46.72.14-51.34,1.33-48.7,0-56.07a129.17,129.17,0,0,0-18.69-46.73c-13.34-21.13-29.11-33.22-46.72-46.73a270.16,270.16,0,0,0-28-18.69c-16.14-9.38-29-16.68-46.73-18.69-5.11-.58-7.14-.87-18.69,0-1.47.12-19.67.08-56.07,0-61.92-.12-58.66-1.46-65.41,0-27,5.84-45.56,19.89-56.08,28-21.4,16.57-32.28,33.54-46.72,56.07-13.84,21.59-25.15,39.67-28,65.42-.49,4.37-.12,3.48,0,28,.25,49.46-1.24,53.73,0,65.42,3.66,34.44,23.12,59.16,28,65.42h0c15,15,44.72,44.72,84.11,56.07a296,296,0,0,0,46.72,9.34c11.41,0,21.19,1.78,28,9.35,2.18,2.41,4.57,7.84,9.34,18.69,2.49,5.66,4.75,11.32,9.35,18.69,3.33,5.34,5.67,8,9.34,9.34A14.34,14.34,0,0,0,2417.71,2828.08Z"/><path class="cls-2" d="M2170.06,2524.36c4.29-2.84-22.28-37.81-46.73-102.79-31.87-84.73-36.44-157.45-37.38-177.56,0-.35,0-.1,0-84.11,0-67.24,0-100.87,0-102.8-.23-91.27-1.07-89.71,0-112.14.72-15,3.61-44.5,9.35-102.8,5.72-58.12,6.27-60.73,9.34-93.45,2.63-28,4.91-56.46,9.35-112.14,5.84-73.23,8.77-110.26,9.34-130.84.85-30.4-.34-24.83,0-102.79.32-71.14,1.3-73.26,0-93.46a557.67,557.67,0,0,0-18.69-112.14c-5.26-19-19.87-67.58-56.07-130.83-4.94-8.64-51.08-94.7-120.13-156.21-6.78-6-33.11-29.06-48.08-21.35-5,2.56-9.56,11-18.69,28-3.22,6-4.67,9.12-9.35,18.69-7.29,14.93-12.57,25.73-18.69,37.38-11.61,22.1-17.41,33.15-18.64,35-6.17,9.11-11.71,15.48-9.39,21.11,1.83,4.45,7.75,6.4,12.24,7.87a36.27,36.27,0,0,0,15.79,1.47c23.52,7.63,37.94,14.35,46.73,18.69,1.08.54,2.23,1.13,3.5,1.9,14.34,8.7,22,20.19,26.55,27.17,13.16,20,2-.11,26,36.35,14.82,22.5,22.23,33.75,28.08,44.15,17.76,31.61,26.64,47.42,28,68,0,.65,0,.25,0,37.38v28c0,13.3.42,27.22,3,71.6,2.23,39,2.45,37,3.83,63.34,1.09,20.78,2,38.26,2.56,61.31.63,27.13,1,44.69,0,65.41-1.47,29-4.51,38.54-9.35,74.77-3.55,26.52-3.43,30.3-9.35,102.79-4.31,52.89-4.47,45.43-9.34,102.8-7.1,83.76-10.63,126.3-9.35,158.87,1.53,38.65,6.18,76.78,9.35,102.8,3.06,25.07,5.27,43.26,9.34,65.41,12.63,68.69,32.76,119.41,37.39,130.84,22.65,56,47.61,94.4,65.41,121.49C2121.19,2475.19,2164.72,2527.91,2170.06,2524.36Z"/><path class="cls-1" d="M2057.92,2599.13c5.59-3.77-22.63-56.54-37.38-84.11,0,0-52.91-98.92-65.42-130.83-3.39-8.66.57.79-28-102.8-9.6-34.77-16.39-58.87-18.69-93.45-1.14-17.25-.56-27.88,0-46.73,2-67.06-1.17-72.32,0-130.83.72-36,1.78-82.16,9.35-140.18,6-46.25,9.73-49.28,18.69-102.8,13.24-79.1,16.73-141,18.69-177.56,3-55.78,5.54-103.51,0-168.21-2.8-32.65-6.19-72.31-18.69-121.49-6.15-24.21-22.37-81.64-65.42-158.87C1787.65,991.7,1666.63,880.83,1656.07,889c-.78.6-.48,1.49,0,9.34,0,0,1.2,19.6,0,46.73-.67,15.06-1.54,34.73-9.34,56.07-11.78,32.2-32.94,50.68-28,56.07,1.68,1.85,5.25.85,9.35,0,0,0,3.36-.7,46.72,0,14.6.24,62.74,17.24,121.49,93.45,80.54,104.48,102.48,218.33,102.8,271V1561.8c.8,77.7,4.09,81.55,0,112.15-2.06,15.4-3.17,16.51-9.35,56.07-2,12.57-5.8,37.28-9.34,65.42-5.68,45.11-3.74,44.63-9.35,93.45-5.36,46.68-8,54.26-9.34,84.1-1.22,26-.41,45,0,56.08,2.78,76.13-.87,121.33,0,158.87,2.48,107,42.73,195.6,56.07,224.28C1969.35,2523.21,2050.23,2604.3,2057.92,2599.13Z"/><path class="cls-1" d="M1581.31,795.49c-2.47-8.46-11.44-8.69-28-18.69,0,0-20.94-12.62-46.72-46.72-48.4-64-24.31-160.71-56.07-168.22-.72-.16,0,0-9.35,0-43.6-.19-52-4.77-56.07,0-6.49,7.62,10.45,24.5,28,65.42,5.2,12.1,18,43.93,18.69,84.11.48,29.64-6.12,35.4-9.35,37.38-10.61,6.49-27.83-1.46-37.38-9.35-7-5.74-7.87-10.15-18.69-28-22.55-37.26-26.54-37.84-28-37.38-5.71,1.75,3.26,25.35-9.34,37.38-10.1,9.63-27.55,5.63-28,9.34-.4,3.06,11.34,6.56,18.69,9.35,29.07,11,56.43,36.49,65.42,65.41,2.77,8.93,7.61,24.49,0,37.39-9.67,16.37-77.4,7.49-93.45,9.34-2,.23-16.49,1.9-18.69,9.35-1.67,5.63,5.31,9.12,9.34,18.69,7.49,17.75-5.16,32.72,0,37.38,6.44,5.81,28.19-16.77,56.07-28,38.88-15.71,93.17-11,102.8,9.35,17.83,37.62-111.86,140.46-112.14,140.18s21.6-27.83,56.07-37.39c9.31-2.58,23.64-6.34,37.38,0,18.39,8.5,23.64,29.53,28,28,3.83-1.3-2.07-16.7,0-37.38,0,0,3.92-39.34,37.38-65.42,5.33-4.16,10.72-8.35,18.69-9.34,9-1.12,13.13,2.89,18.69,0,4.9-2.56,6.12-8,9.34-18.69,2.84-9.44,6.79-18.53,9.35-28C1553.62,824.85,1586.27,812.53,1581.31,795.49Z"/><path class="cls-3" d="M1114.05,1001.09c22-7.61,51.34-17.71,74.76-46.73,1.76-2.18,40.47-51.33,28-102.79-4-16.76-14.67-38.48-18.7-46.73-9.65-19.76-13.26-22.21-18.69-37.38a172.93,172.93,0,0,1-9.34-46.73c-1.32-18.24,1.23-18.66,0-37.38s-2-32.88-9.35-46.72c-13.39-25.15-38.8-34.79-37.38-37.39,1.23-2.23,19.59,6,28,9.35,50.87,20,114.67,7,158.87-18.69,17.45-10.14,48-27.9,65.41-65.42,1.6-3.44,19.29-42.86,9.35-84.1-20.38-84.58-146.11-131.91-243-130.84-63.76.71-113.06,22.38-140.18,37.38-70.3,38.91-104,95.27-130.83,140.18-15.58,26.07-53.87,96.53-65.42,196.25-6.14,53-11.79,101.87,9.35,158.87,30.36,81.85,106.49,155,196.25,168.22C1063.21,1018.11,1106.36,1003.74,1114.05,1001.09Z"/><path class="cls-2" d="M805.65,860.91c3.47,6.05-33.49,41.59-84.1,65.42-30.56,14.39-82.92,39-140.18,28C454.47,930,408.79,750.75,403.81,730.08c-10.06-41.74-9.74-73.47-9.35-112.15.57-55.09,1.6-156.75,56.08-261.66,26.06-50.2,92.05-177.3,224.28-205.6,20.44-4.37,104-22.27,177.56,28,94.7,64.8,101.15,192.9,93.45,196.25-3.54,1.54-11.5-29.36-37.38-37.38-5.79-1.8-30.48-8-74.76,28-72.77,59.26-97.84,150.8-112.14,205.6,0,0-24.23,92.82-9.35,205.59,1.71,13,6.47,42.5,28,65.42,5.15,5.48,14,14.64,28,18.69C788.57,866.77,803.58,857.3,805.65,860.91Z"/></svg>