<svg xmlns="http://www.w3.org/2000/svg" xmlns:xlink="http://www.w3.org/1999/xlink" viewBox="0 0 3000 3000"><defs><style>.cls-1{fill:#faa;}.cls-1,.cls-2,.cls-3,.cls-4{stroke:#000;stroke-miterlimit:10;stroke-width:7px;}.cls-2{fill:#fea;}.cls-3{fill:url(#Gradiente_sem_nome_16);}.cls-4{fill:url(#Gradiente_sem_nome_28);}</style><linearGradient id="Gradiente_sem_nome_16" x1="1582.26" y1="1339.33" x2="2187.18" y2="1339.33" gradientUnits="userSpaceOnUse"><stop offset="0.53" stop-color="#ffb380"/><stop offset="0.61" stop-color="#fea"/></linearGradient><linearGradient id="Gradiente_sem_nome_28" x1="689.85" y1="1352.54" x2="1360.28" y2="1352.54" gradientUnits="userSpaceOnUse"><stop offset="0.63" stop-color="#ffb380"/><stop offset="0.65" stop-color="#fea"/></linearGradient></defs><g id="Camada_2" data-name="Camada 2"><path class="cls-1" d="M984.32,994.68c24.73-8.77,57.57-20.42,83.83-53.87,2-2.52,45.37-59.18,31.43-118.51-4.54-19.33-16.44-44.36-21-53.87-10.82-22.78-14.87-25.61-20.95-43.1a203.68,203.68,0,0,1-10.48-53.87c-1.48-21,1.38-21.52,0-43.09s-2.21-37.91-10.48-53.87c-15-29-43.51-40.11-41.91-43.09,1.38-2.58,22,6.94,31.43,10.77,57,23,128.58,8.06,178.13-21.55,19.57-11.69,53.84-32.16,73.35-75.41,1.79-4,21.62-49.42,10.48-97-22.86-97.51-163.83-152.07-272.44-150.83-71.49.82-126.76,25.79-157.17,43.09C779.75,285.37,742,350.35,711.89,402.12c-17.47,30.05-60.41,111.28-73.35,226.25-6.89,61.15-13.23,117.44,10.48,183.15,34,94.36,119.4,178.66,220,193.93C927.32,1014.29,975.7,997.73,984.32,994.68Z"/><path class="cls-2" d="M1506.18,2846.67c4.65-1.67,7.35-5.25,10.66-10.66,6.22-10.19,8-16.2,10.66-21.33,4.7-9.13,11.23-13.92,21.33-21.32,15.54-11.4,28.71-15.79,42.65-21.33,24.19-9.61,43.54-17.3,64-32,9.62-6.92,27.29-19.77,42.65-42.65,7.11-10.6,18.86-28.54,21.33-53.32.32-3.28.16-3.36,0-21.32-.11-12.07-.07-25.82,0-53.31.15-58.57,1.51-55.56,0-64a147.48,147.48,0,0,0-21.33-53.31c-15.22-24.11-33.22-37.91-53.31-53.31a305.38,305.38,0,0,0-32-21.33c-18.41-10.7-33.08-19-53.31-21.32-5.83-.66-8.15-1-21.32,0-1.69.12-22.45.08-64,0-70.65-.15-66.93-1.67-74.64,0-30.8,6.66-52,22.69-64,32-24.42,18.91-36.83,38.27-53.31,64-15.8,24.64-28.7,45.26-32,74.64-.56,5-.14,4,0,32,.28,56.43-1.42,61.3,0,74.64,4.17,39.3,26.37,67.5,32,74.64h0c17.13,17.13,51,51,96,64a338.37,338.37,0,0,0,53.31,10.67c13,0,24.17,2,32,10.66,2.49,2.75,5.22,8.94,10.66,21.32,2.84,6.46,5.42,12.92,10.66,21.33,3.8,6.09,6.48,9.17,10.67,10.66A16.38,16.38,0,0,0,1506.18,2846.67Z"/><path class="cls-1" d="M2014.93,950c-24.72-8.77-57.56-20.42-83.82-53.87-2-2.51-45.38-59.18-31.44-118.51,4.54-19.32,16.44-44.36,21-53.87,10.82-22.78,14.87-25.61,20.95-43.09a203.82,203.82,0,0,0,10.48-53.87c1.48-21-1.38-21.52,0-43.1s2.22-37.91,10.48-53.87c15-29,43.51-40.11,41.91-43.09-1.38-2.58-22,6.94-31.43,10.77-57,23-128.57,8.06-178.13-21.55-19.57-11.69-53.84-32.16-73.35-75.41-1.79-4-21.62-49.41-10.48-97,22.86-97.5,163.83-152.07,272.44-150.83,71.5.82,126.77,25.8,157.17,43.1,78.83,44.85,116.6,109.83,146.7,161.6,17.47,30.06,60.4,111.29,73.34,226.25,6.89,61.15,13.23,117.45-10.47,183.16-34,94.36-119.41,178.65-220,193.92C2071.93,969.58,2023.55,953,2014.93,950Z"/><path class="cls-3" d="M1582.26,2401.7c.46.35,40.48-42.79,79.74-103,20.71-31.78,60.11-93.15,86.37-179.4,16.82-55.23,21-96.79,26.58-156.15,2.13-22.56,9.42-105.77,0-272.42-3.59-63.55-4.91-56.09-19.93-242.52-12-149.32-12.89-175.28-13.29-192.69-1.66-71.72-3.33-143.37,10-232.56,0,0,30.86-207.08,129.56-305.64,21.73-21.7,44-35.18,69.77-36.55,1.84-.09,45.54-1.82,66.45,26.58,15.22,20.68,13,50.07,16.61,49.83,2.53-.17.49-14.5,10-23.25,2-1.84,6.87-5.63,19.94-6.65,24.86-1.92,41.69,9.13,43.19,6.65,2.24-3.72-38.15-24.67-63.13-66.45-7.72-12.92-14.06-28-10-43.19.82-3.06,3-10.86,10-16.61,7.34-6.08,15.76-6.37,29.9-6.64,8.71-.17,19.43-.3,33.23,3.32,10.93,2.87,28,7.34,39.86,19.93,20.13,21.3,16.78,56.46,16.61,56.48a148.75,148.75,0,0,1-3.32-29.9c-.07-10.44-.18-25,6.65-39.86,8.74-19,22.26-24.16,19.93-29.9-2.11-5.2-14.3-3.86-39.87-3.33-53.49,1.11-60-3.53-63.12-6.64-12.9-13-5.36-39.39-3.32-46.51,6.74-23.61,25.84-46,49.83-56.48,15.1-6.61,29.49-7.36,29.9-13.29.38-5.52-12-6.6-19.93-19.93-3.73-6.23-4.76-12.23-6.65-23.26-2.76-16.14-1-22.56-3.32-23.25-4-1.2-11.78,17.21-33.22,53.15-4.66,7.8-10.2,16.85-19.93,26.58-8.32,8.31-19.36,19.34-26.58,16.61-10-3.76-7.94-31.95-6.65-49.83,1.48-20.46,3.09-40.46,13.29-69.77,18.06-51.9,44.12-78.62,36.55-86.38-4.13-4.22-11.81,3.79-33.23,3.32s-29.76-8.74-36.54-3.32c-4.95,4-3.87,11.12-3.32,33.22,0,0,.37,15.13,0,39.87-.33,21.72-5.64,37.31-13.29,59.8-12.51,36.76-19.72,57.94-39.87,76.41-13.88,12.73-28.3,19-53.15,29.9A347.67,347.67,0,0,1,1868,534.6c-40.76,11.57-132.92,73.29-196,172.76-59.12,93.22-68.5,181.4-76.41,255.81-7.2,67.74-3.28,116.8,3.32,199.34,7.06,88.19,18.67,153.37,39.87,272.42,21.62,121.39,28.62,138.94,36.55,212.62,5.65,52.6,7.09,91.55,10,169.43,3,80.3,5.17,144.57,0,229.24-3.77,61.83-5.66,92.75-13.29,126.24-15.86,69.67-43,122.64-63.12,179.4a179.05,179.05,0,0,1-10,23.26C1590.41,2391.57,1582.05,2401.53,1582.26,2401.7Z"/><path class="cls-4" d="M1359.67,2408.34c5.27-3.08-24.85-58.72-56.47-132.89-13.85-32.48-39.64-92.94-56.48-152.82-20.86-74.16-22.77-132.49-26.58-249.17-.77-23.5-3-103.82,3.32-219.26,4.32-78.63,7.92-87.83,19.94-219.27,22.94-251,19-318,16.61-348.84-4-51.23-8.65-110.23-29.9-186-15.55-55.47-40.28-143.64-106.31-232.56-41.81-56.28-60.23-59.1-99.67-122.92-8.22-13.3-50.53-83-56.48-146.18-3.41-36.26-3.32-49.83-3.32-49.83.2-30.9,4.51-43.73-3.32-49.83-8.27-6.44-18.55,3.57-46.51,6.64-32,3.52-44-6.83-49.84,0-9.48,11.08,20.16,40.42,49.84,109.63,0,0,16.58,38.67,16.61,99.67,0,5.3-.19,16-6.65,19.93-11,6.69-32.92-11-39.86-16.61-60.9-49.2-78-138.34-86.38-136.21-3,.76.4,11.74-3.33,29.9-.76,3.74-8.19,37.59-36.54,59.8-20.61,16.15-40.4,16.83-39.87,23.26.46,5.47,14.84,5.42,33.23,13.29,31,13.26,47.6,38,53.15,46.51,9.25,14.16,26.13,40,16.61,63.12-5.71,13.89-18.47,20.76-23.25,23.26-43,22.44-92.85-16.53-106.31,0-6.94,8.5,5.83,19.37,6.64,53.15.77,31.84-10.06,43.44-3.32,49.83,6,5.71,20.47,2,103-39.86,36-18.24,48.5-25.28,69.76-26.58,4.53-.28,52.36-2.73,63.13,19.93,13.39,28.21-38.49,78.74-53.16,93-43.53,42.39-86.91,58.83-83.06,69.76,2,5.56,13.46,2.15,29.9,6.65,49.58,13.55,63.73,76.9,79.74,73.09,9.92-2.37,4.74-26.75,16.61-63.13,16-49.13,49.49-78.16,63.12-89.7,22.31-18.87,51-43.11,83.06-36.54,17.66,3.61,28.81,15,39.86,26.58,19.93,20.87,30.39,43.25,49.84,106.31,16.3,52.85,24.45,79.27,29.9,109.63,9.33,52,9.83,92.47,10,119.6.77,151.7-6.64,262.46-6.64,262.46-3.8,56.8-12.12,181.2-16.61,259.13-19.57,339.78-1.82,414.73,10,455.15,27.67,94.87,74.42,177.44,83.05,192.69,23.69,41.83,44.8,69.23,63.12,93C1344.85,2394.69,1356.76,2410,1359.67,2408.34Z"/></g></svg>