<svg xmlns="http://www.w3.org/2000/svg" id="Camada_1" data-name="Camada 1" viewBox="2189.5 2394.06 419.23 438.28"><defs><style>.cls-1{fill:#fea;}.cls-1,.cls-2,.cls-3{stroke:#000;stroke-miterlimit:10;stroke-width:7px;}.cls-2{fill:#d40000;}.cls-3{fill:#faa;}</style></defs>
<path class="cls-1" d="M2417.71,2828.08c4.07-1.46,6.45-4.59,9.34-9.34,5.46-8.93,7-14.2,9.35-18.69,4.11-8,9.84-12.2,18.69-18.69,13.62-10,25.17-13.84,37.38-18.69,21.2-8.43,38.17-15.16,56.07-28,8.43-6.06,23.92-17.32,37.38-37.38,6.23-9.28,16.53-25,18.69-46.73.29-2.87.14-2.95,0-18.69-.09-10.58-.06-22.63,0-46.72.14-51.34,1.33-48.7,0-56.07a129.17,129.17,0,0,0-18.69-46.73c-13.34-21.13-29.11-33.22-46.72-46.73a270.16,270.16,0,0,0-28-18.69c-16.14-9.38-29-16.68-46.73-18.69-5.11-.58-7.14-.87-18.69,0-1.47.12-19.67.08-56.07,0-61.92-.12-58.66-1.46-65.41,0-27,5.84-45.56,19.89-56.08,28-21.4,16.57-32.28,33.54-46.72,56.07-13.84,21.59-25.15,39.67-28,65.42-.49,4.37-.12,3.48,0,28,.25,49.46-1.24,53.73,0,65.42,3.66,34.44,23.12,59.16,28,65.42h0c15,15,44.72,44.72,84.11,56.07a296,296,0,0,0,46.72,9.34c11.41,0,21.19,1.78,28,9.35,2.18,2.41,4.57,7.84,9.34,18.69,2.49,5.66,4.75,11.32,9.35,18.69,3.33,5.34,5.67,8,9.34,9.34A14.34,14.34,0,0,0,2417.71,2828.08Z"/>
</svg>