<svg xmlns="http://www.w3.org/2000/svg" id="Camada_1" data-name="Camada 1" viewBox="390.82 140.5 560.87 820.08"><defs><style>.cls-1{fill:#fea;}.cls-1,.cls-2,.cls-3{stroke:#000;stroke-miterlimit:10;stroke-width:7px;}.cls-2{fill:#d40000;}.cls-3{fill:#faa;}</style></defs>
<path class="cls-2" d="M805.65,860.91c3.47,6.05-33.49,41.59-84.1,65.42-30.56,14.39-82.92,39-140.18,28C454.47,930,408.79,750.75,403.81,730.08c-10.06-41.74-9.74-73.47-9.35-112.15.57-55.09,1.6-156.75,56.08-261.66,26.06-50.2,92.05-177.3,224.28-205.6,20.44-4.37,104-22.27,177.56,28,94.7,64.8,101.15,192.9,93.45,196.25-3.54,1.54-11.5-29.36-37.38-37.38-5.79-1.8-30.48-8-74.76,28-72.77,59.26-97.84,150.8-112.14,205.6,0,0-24.23,92.82-9.35,205.59,1.71,13,6.47,42.5,28,65.42,5.15,5.48,14,14.64,28,18.69C788.57,866.77,803.58,857.3,805.65,860.91Z"/>
</svg>