<svg xmlns="http://www.w3.org/2000/svg" id="Camada_1" data-name="Camada 1" viewBox="796.45 306.02 595.05 710.15"><defs><style>.cls-1{fill:#fea;}.cls-1,.cls-2,.cls-3{stroke:#000;stroke-miterlimit:10;stroke-width:7px;}.cls-2{fill:#d40000;}.cls-3{fill:#faa;}</style></defs>
<path class="cls-3" d="M1114.05,1001.09c22-7.61,51.34-17.71,74.76-46.73,1.76-2.18,40.47-51.33,28-102.79-4-16.76-14.67-38.48-18.7-46.73-9.65-19.76-13.26-22.21-18.69-37.38a172.93,172.93,0,0,1-9.34-46.73c-1.32-18.24,1.23-18.66,0-37.38s-2-32.88-9.35-46.72c-13.39-25.15-38.8-34.79-37.38-37.39,1.23-2.23,19.59,6,28,9.35,50.87,20,114.67,7,158.87-18.69,17.45-10.14,48-27.9,65.41-65.42,1.6-3.44,19.29-42.86,9.35-84.1-20.38-84.58-146.11-131.91-243-130.84-63.76.71-113.06,22.38-140.18,37.38-70.3,38.91-104,95.27-130.83,140.18-15.58,26.07-53.87,96.53-65.42,196.25-6.14,53-11.79,101.87,9.35,158.87,30.36,81.85,106.49,155,196.25,168.22C1063.21,1018.11,1106.36,1003.74,1114.05,1001.09Z"/>
</svg>