<svg xmlns="http://www.w3.org/2000/svg" id="Camada_1" data-name="Camada 1" viewBox="1269.25 556.2 316.07 476.5"><defs><style>.cls-1{fill:#fea;}.cls-1,.cls-2,.cls-3{stroke:#000;stroke-miterlimit:10;stroke-width:7px;}.cls-2{fill:#d40000;}.cls-3{fill:#faa;}</style></defs>
<path class="cls-1" d="M1581.31,795.49c-2.47-8.46-11.44-8.69-28-18.69,0,0-20.94-12.62-46.72-46.72-48.4-64-24.31-160.71-56.07-168.22-.72-.16,0,0-9.35,0-43.6-.19-52-4.77-56.07,0-6.49,7.62,10.45,24.5,28,65.42,5.2,12.1,18,43.93,18.69,84.11.48,29.64-6.12,35.4-9.35,37.38-10.61,6.49-27.83-1.46-37.38-9.35-7-5.74-7.87-10.15-18.69-28-22.55-37.26-26.54-37.84-28-37.38-5.71,1.75,3.26,25.35-9.34,37.38-10.1,9.63-27.55,5.63-28,9.34-.4,3.06,11.34,6.56,18.69,9.35,29.07,11,56.43,36.49,65.42,65.41,2.77,8.93,7.61,24.49,0,37.39-9.67,16.37-77.4,7.49-93.45,9.34-2,.23-16.49,1.9-18.69,9.35-1.67,5.63,5.31,9.12,9.34,18.69,7.49,17.75-5.16,32.72,0,37.38,6.44,5.81,28.19-16.77,56.07-28,38.88-15.71,93.17-11,102.8,9.35,17.83,37.62-111.86,140.46-112.14,140.18s21.6-27.83,56.07-37.39c9.31-2.58,23.64-6.34,37.38,0,18.39,8.5,23.64,29.53,28,28,3.83-1.3-2.07-16.7,0-37.38,0,0,3.92-39.34,37.38-65.42,5.33-4.16,10.72-8.35,18.69-9.34,9-1.12,13.13,2.89,18.69,0,4.9-2.56,6.12-8,9.34-18.69,2.84-9.44,6.79-18.53,9.35-28C1553.62,824.85,1586.27,812.53,1581.31,795.49Z"/>
</svg>