<svg xmlns="http://www.w3.org/2000/svg" id="Camada_1" data-name="Camada 1" viewBox="1801.56 883.89 372.46 1644.14"><defs><style>.cls-1{fill:#fea;}.cls-1,.cls-2,.cls-3{stroke:#000;stroke-miterlimit:10;stroke-width:7px;}.cls-2{fill:#d40000;}.cls-3{fill:#faa;}</style></defs><path class="cls-2" d="M2170.06,2524.36c4.29-2.84-22.28-37.81-46.73-102.79-31.87-84.73-36.44-157.45-37.38-177.56,0-.35,0-.1,0-84.11,0-67.24,0-100.87,0-102.8-.23-91.27-1.07-89.71,0-112.14.72-15,3.61-44.5,9.35-102.8,5.72-58.12,6.27-60.73,9.34-93.45,2.63-28,4.91-56.46,9.35-112.14,5.84-73.23,8.77-110.26,9.34-130.84.85-30.4-.34-24.83,0-102.79.32-71.14,1.3-73.26,0-93.46a557.67,557.67,0,0,0-18.69-112.14c-5.26-19-19.87-67.58-56.07-130.83-4.94-8.64-51.08-94.7-120.13-156.21-6.78-6-33.11-29.06-48.08-21.35-5,2.56-9.56,11-18.69,28-3.22,6-4.67,9.12-9.35,18.69-7.29,14.93-12.57,25.73-18.69,37.38-11.61,22.1-17.41,33.15-18.64,35-6.17,9.11-11.71,15.48-9.39,21.11,1.83,4.45,7.75,6.4,12.24,7.87a36.27,36.27,0,0,0,15.79,1.47c23.52,7.63,37.94,14.35,46.73,18.69,1.08.54,2.23,1.13,3.5,1.9,14.34,8.7,22,20.19,26.55,27.17,13.16,20,2-.11,26,36.35,14.82,22.5,22.23,33.75,28.08,44.15,17.76,31.61,26.64,47.42,28,68,0,.65,0,.25,0,37.38v28c0,13.3.42,27.22,3,71.6,2.23,39,2.45,37,3.83,63.34,1.09,20.78,2,38.26,2.56,61.31.63,27.13,1,44.69,0,65.41-1.47,29-4.51,38.54-9.35,74.77-3.55,26.52-3.43,30.3-9.35,102.79-4.31,52.89-4.47,45.43-9.34,102.8-7.1,83.76-10.63,126.3-9.35,158.87,1.53,38.65,6.18,76.78,9.35,102.8,3.06,25.07,5.27,43.26,9.34,65.41,12.63,68.69,32.76,119.41,37.39,130.84,22.65,56,47.61,94.4,65.41,121.49C2121.19,2475.19,2164.72,2527.91,2170.06,2524.36Z"/></svg>