<svg xmlns="http://www.w3.org/2000/svg" id="Camada_1" data-name="Camada 1" viewBox="1614.5 885.08 447.65 1717.79"><defs><style>.cls-1{fill:#fea;}.cls-1,.cls-2,.cls-3{stroke:#000;stroke-miterlimit:10;stroke-width:7px;}.cls-2{fill:#d40000;}.cls-3{fill:#faa;}</style></defs>
<path class="cls-1" d="M2057.92,2599.13c5.59-3.77-22.63-56.54-37.38-84.11,0,0-52.91-98.92-65.42-130.83-3.39-8.66.57.79-28-102.8-9.6-34.77-16.39-58.87-18.69-93.45-1.14-17.25-.56-27.88,0-46.73,2-67.06-1.17-72.32,0-130.83.72-36,1.78-82.16,9.35-140.18,6-46.25,9.73-49.28,18.69-102.8,13.24-79.1,16.73-141,18.69-177.56,3-55.78,5.54-103.51,0-168.21-2.8-32.65-6.19-72.31-18.69-121.49-6.15-24.21-22.37-81.64-65.42-158.87C1787.65,991.7,1666.63,880.83,1656.07,889c-.78.6-.48,1.49,0,9.34,0,0,1.2,19.6,0,46.73-.67,15.06-1.54,34.73-9.34,56.07-11.78,32.2-32.94,50.68-28,56.07,1.68,1.85,5.25.85,9.35,0,0,0,3.36-.7,46.72,0,14.6.24,62.74,17.24,121.49,93.45,80.54,104.48,102.48,218.33,102.8,271V1561.8c.8,77.7,4.09,81.55,0,112.15-2.06,15.4-3.17,16.51-9.35,56.07-2,12.57-5.8,37.28-9.34,65.42-5.68,45.11-3.74,44.63-9.35,93.45-5.36,46.68-8,54.26-9.34,84.1-1.22,26-.41,45,0,56.08,2.78,76.13-.87,121.33,0,158.87,2.48,107,42.73,195.6,56.07,224.28C1969.35,2523.21,2050.23,2604.3,2057.92,2599.13Z"/>
</svg>